<svg class="chart chart-cartesian chart-bar" xmlns="http://www.w3.org/2000/svg" data-flipped="false" x="0" y="0" width="624" height="520" display="grid" overflow="hidden"><svg class="draw-area" x="66" y="32" width="542" height="403" display="grid"><rect class="background" x="0" y="0" width="542" height="403" opacity="0"></rect><g class="series-bar" transform="matrix(1, 0, 0, 1, 0, 0)"><rect class="bar" x="8" y="20" width="68" height="383" data-style="categorical-0" data-category="Vienna" data-key="Vienna" stroke="rgb(0, 0, 0)" fill="rgb(120, 180, 198)"></rect><rect class="bar" x="84" y="353" width="68" height="49" data-style="categorical-0" data-category="Graz" data-key="Graz" stroke="rgb(0, 0, 0)" fill="rgb(120, 180, 198)"></rect><rect class="bar" x="161" y="357" width="68" height="46" data-style="categorical-0" data-category="Linz" data-key="Linz" stroke="rgb(0, 0, 0)" fill="rgb(120, 180, 198)"></rect><rect class="bar" x="237" y="369" width="68" height="34" data-style="categorical-0" data-category="Salzburg" data-key="Salzburg" stroke="rgb(0, 0, 0)" fill="rgb(120, 180, 198)"></rect><rect class="bar" x="313" y="374" width="68" height="29" data-style="categorical-0" data-category="Innsbruck" data-key="Innsbruck" stroke="rgb(0, 0, 0)" fill="rgb(120, 180, 198)"></rect><rect class="bar" x="390" y="383" width="68" height="20" data-style="categorical-0" data-category="Klagenfurt" data-key="Klagenfurt" stroke="rgb(0, 0, 0)" fill="rgb(120, 180, 198)"></rect><rect class="bar" x="466" y="390" width="68" height="12" data-style="categorical-0" data-category="Villach" data-key="Villach" stroke="rgb(0, 0, 0)" fill="rgb(120, 180, 198)"></rect></g><g class="series-label series-label-bar" transform="matrix(1, 0, 0, 1, 0, 0)" font-size="11.2px" pointer-events="none"><text class="label" transform="matrix(1, 0, 0, 1, 42, 16)" font-size="1em" opacity="1" data-key="Vienna" data-align-h="center" data-align-v="top" display="block" text-anchor="middle" white-space="nowrap">1.69M</text><text class="label" transform="matrix(1, 0, 0, 1, 118, 350)" font-size="1em" opacity="1" data-key="Graz" data-align-h="center" data-align-v="top" display="block" text-anchor="middle" white-space="nowrap">222k</text><text class="label" transform="matrix(1, 0, 0, 1, 195, 353)" font-size="1em" opacity="1" data-key="Linz" data-align-h="center" data-align-v="top" display="block" text-anchor="middle" white-space="nowrap">205k</text><text class="label" transform="matrix(1, 0, 0, 1, 271, 365)" font-size="1em" opacity="1" data-key="Salzburg" data-align-h="center" data-align-v="top" display="block" text-anchor="middle" white-space="nowrap">153k</text><text class="label" transform="matrix(1, 0, 0, 1, 347, 370)" font-size="1em" opacity="1" data-key="Innsbruck" data-align-h="center" data-align-v="top" display="block" text-anchor="middle" white-space="nowrap">132k</text><text class="label" transform="matrix(1, 0, 0, 1, 424, 379)" font-size="1em" opacity="1" data-key="Klagenfurt" data-align-h="center" data-align-v="top" display="block" text-anchor="middle" white-space="nowrap">91.0k</text><text class="label" transform="matrix(1, 0, 0, 1, 500, 387)" font-size="1em" opacity="1" data-key="Villach" data-align-h="center" data-align-v="top" display="block" text-anchor="middle" white-space="nowrap">59.0k</text></g></svg><g class="axis axis-left axis-y" transform="matrix(1, 0, 0, 1, 8, 32)" display="grid" font-size="11.2px"><g class="ticks-transform" transform="matrix(1, 0, 0, 1, 24, 0)"><g class="ticks" transform="matrix(1, 0, 0, 1, 34, 0)"><path class="domain" d="M-6,403H0V0H-6" fill="none" stroke="rgb(0, 0, 0)"></path><g class="tick" transform="matrix(1, 0, 0, 1, 0, 403)" data-key="0"><line x2="-6" stroke="rgb(0, 0, 0)"></line><g class="pivot" transform="matrix(1, 0, 0, 1, -9, 0)"><text display="block" dominant-baseline="middle" text-anchor="end" white-space="nowrap">0.0</text></g><g class="pivot"></g><g class="pivot"></g><g class="pivot"></g><g class="pivot"></g><g class="pivot"></g><g class="pivot"></g><g class="pivot"></g><g class="pivot"></g><g class="pivot"></g><g class="pivot"></g><g class="pivot"></g><g class="pivot"></g><g class="pivot"></g></g><g class="tick" transform="matrix(1, 0, 0, 1, 0, 357.606)" data-key="200000"><line x2="-6" stroke="rgb(0, 0, 0)"></line><g class="pivot" transform="matrix(1, 0, 0, 1, -9, 0)"><text display="block" dominant-baseline="middle" text-anchor="end" white-space="nowrap">200k</text></g><g class="pivot"></g><g class="pivot"></g><g class="pivot"></g><g class="pivot"></g><g class="pivot"></g><g class="pivot"></g><g class="pivot"></g><g class="pivot"></g><g class="pivot"></g><g class="pivot"></g><g class="pivot"></g><g class="pivot"></g><g class="pivot"></g></g><g class="tick" transform="matrix(1, 0, 0, 1, 0, 312.211)" data-key="400000"><line x2="-6" stroke="rgb(0, 0, 0)"></line><g class="pivot" transform="matrix(1, 0, 0, 1, -9, 0)"><text display="block" dominant-baseline="middle" text-anchor="end" white-space="nowrap">400k</text></g><g class="pivot"></g><g class="pivot"></g><g class="pivot"></g><g class="pivot"></g><g class="pivot"></g><g class="pivot"></g><g class="pivot"></g><g class="pivot"></g><g class="pivot"></g><g class="pivot"></g><g class="pivot"></g><g class="pivot"></g><g class="pivot"></g></g><g class="tick" transform="matrix(1, 0, 0, 1, 0, 266.817)" data-key="600000"><line x2="-6" stroke="rgb(0, 0, 0)"></line><g class="pivot" transform="matrix(1, 0, 0, 1, -9, 0)"><text display="block" dominant-baseline="middle" text-anchor="end" white-space="nowrap">600k</text></g><g class="pivot"></g><g class="pivot"></g><g class="pivot"></g><g class="pivot"></g><g class="pivot"></g><g class="pivot"></g><g class="pivot"></g><g class="pivot"></g><g class="pivot"></g><g class="pivot"></g><g class="pivot"></g><g class="pivot"></g><g class="pivot"></g></g><g class="tick" transform="matrix(1, 0, 0, 1, 0, 221.422)" data-key="800000"><line x2="-6" stroke="rgb(0, 0, 0)"></line><g class="pivot" transform="matrix(1, 0, 0, 1, -9, 0)"><text display="block" dominant-baseline="middle" text-anchor="end" white-space="nowrap">800k</text></g><g class="pivot"></g><g class="pivot"></g><g class="pivot"></g><g class="pivot"></g><g class="pivot"></g><g class="pivot"></g><g class="pivot"></g><g class="pivot"></g><g class="pivot"></g><g class="pivot"></g><g class="pivot"></g><g class="pivot"></g><g class="pivot"></g></g><g class="tick" transform="matrix(1, 0, 0, 1, 0, 176.028)" data-key="1000000"><line x2="-6" stroke="rgb(0, 0, 0)"></line><g class="pivot" transform="matrix(1, 0, 0, 1, -9, 0)"><text display="block" dominant-baseline="middle" text-anchor="end" white-space="nowrap">1.0M</text></g><g class="pivot"></g><g class="pivot"></g><g class="pivot"></g><g class="pivot"></g><g class="pivot"></g><g class="pivot"></g><g class="pivot"></g><g class="pivot"></g><g class="pivot"></g><g class="pivot"></g><g class="pivot"></g><g class="pivot"></g><g class="pivot"></g></g><g class="tick" transform="matrix(1, 0, 0, 1, 0, 130.634)" data-key="1200000"><line x2="-6" stroke="rgb(0, 0, 0)"></line><g class="pivot" transform="matrix(1, 0, 0, 1, -9, 0)"><text display="block" dominant-baseline="middle" text-anchor="end" white-space="nowrap">1.2M</text></g><g class="pivot"></g><g class="pivot"></g><g class="pivot"></g><g class="pivot"></g><g class="pivot"></g><g class="pivot"></g><g class="pivot"></g><g class="pivot"></g><g class="pivot"></g><g class="pivot"></g><g class="pivot"></g><g class="pivot"></g><g class="pivot"></g></g><g class="tick" transform="matrix(1, 0, 0, 1, 0, 85.2393)" data-key="1400000"><line x2="-6" stroke="rgb(0, 0, 0)"></line><g class="pivot" transform="matrix(1, 0, 0, 1, -9, 0)"><text display="block" dominant-baseline="middle" text-anchor="end" white-space="nowrap">1.4M</text></g><g class="pivot"></g><g class="pivot"></g><g class="pivot"></g><g class="pivot"></g><g class="pivot"></g><g class="pivot"></g><g class="pivot"></g><g class="pivot"></g><g class="pivot"></g><g class="pivot"></g><g class="pivot"></g><g class="pivot"></g><g class="pivot"></g></g><g class="tick" transform="matrix(1, 0, 0, 1, 0, 39.8449)" data-key="1600000"><line x2="-6" stroke="rgb(0, 0, 0)"></line><g class="pivot" transform="matrix(1, 0, 0, 1, -9, 0)"><text display="block" dominant-baseline="middle" text-anchor="end" white-space="nowrap">1.6M</text></g><g class="pivot"></g><g class="pivot"></g><g class="pivot"></g><g class="pivot"></g><g class="pivot"></g><g class="pivot"></g><g class="pivot"></g><g class="pivot"></g><g class="pivot"></g><g class="pivot"></g><g class="pivot"></g><g class="pivot"></g><g class="pivot"></g></g></g></g><g class="title" transform="matrix(1, 0, 0, 1, 0, 0)"><text display="block" dominant-baseline="hanging" font-size="16.8px" letter-spacing="1.68px" text-anchor="end" white-space="nowrap" transform="matrix(6.12323e-17, -1, 1, 6.12323e-17, 0, 0)">Population</text></g><g class="subtitle" transform="matrix(1, 0, 0, 1, 19, 0)"><text display="block" dominant-baseline="hanging" text-anchor="end" white-space="nowrap" transform="matrix(6.12323e-17, -1, 1, 6.12323e-17, 0, 0)"></text></g></g><g class="axis axis-bottom axis-x" transform="matrix(1, 0, 0, 1, 66, 435)" display="grid" font-size="11.2px"><g class="ticks-transform" transform="matrix(1, 0, 0, 1, 0, 0)"><g class="ticks" transform="matrix(1, 0, 0, 1, 0, 0)"><path class="domain" d="M0,6V0H542V6" fill="none" stroke="rgb(0, 0, 0)"></path><g class="tick" transform="matrix(1, 0, 0, 1, 41.9859, 0)" data-key="Vienna"><line y2="6" stroke="rgb(0, 0, 0)"></line><g class="pivot" transform="matrix(1, 0, 0, 1, 0, 9)"><text display="block" dominant-baseline="hanging" text-anchor="end" white-space="nowrap" transform="matrix(0.707107, -0.707107, 0.707107, 0.707107, 0, 0)">Vienna</text></g><g class="pivot"></g><g class="pivot"></g><g class="pivot"></g><g class="pivot"></g><g class="pivot"></g><g class="pivot"></g><g class="pivot"></g><g class="pivot"></g><g class="pivot"></g><g class="pivot"></g><g class="pivot"></g><g class="pivot"></g><g class="pivot"></g></g><g class="tick" transform="matrix(1, 0, 0, 1, 118.324, 0)" data-key="Graz"><line y2="6" stroke="rgb(0, 0, 0)"></line><g class="pivot" transform="matrix(1, 0, 0, 1, 0, 9)"><text display="block" dominant-baseline="hanging" text-anchor="end" white-space="nowrap" transform="matrix(0.707107, -0.707107, 0.707107, 0.707107, 0, 0)">Graz</text></g><g class="pivot"></g><g class="pivot"></g><g class="pivot"></g><g class="pivot"></g><g class="pivot"></g><g class="pivot"></g><g class="pivot"></g><g class="pivot"></g><g class="pivot"></g><g class="pivot"></g><g class="pivot"></g><g class="pivot"></g><g class="pivot"></g></g><g class="tick" transform="matrix(1, 0, 0, 1, 194.662, 0)" data-key="Linz"><line y2="6" stroke="rgb(0, 0, 0)"></line><g class="pivot" transform="matrix(1, 0, 0, 1, 0, 9)"><text display="block" dominant-baseline="hanging" text-anchor="end" white-space="nowrap" transform="matrix(0.707107, -0.707107, 0.707107, 0.707107, 0, 0)">Linz</text></g><g class="pivot"></g><g class="pivot"></g><g class="pivot"></g><g class="pivot"></g><g class="pivot"></g><g class="pivot"></g><g class="pivot"></g><g class="pivot"></g><g class="pivot"></g><g class="pivot"></g><g class="pivot"></g><g class="pivot"></g><g class="pivot"></g></g><g class="tick" transform="matrix(1, 0, 0, 1, 271, 0)" data-key="Salzburg"><line y2="6" stroke="rgb(0, 0, 0)"></line><g class="pivot" transform="matrix(1, 0, 0, 1, 0, 9)"><text display="block" dominant-baseline="hanging" text-anchor="end" white-space="nowrap" transform="matrix(0.707107, -0.707107, 0.707107, 0.707107, 0, 0)">Salzburg</text></g><g class="pivot"></g><g class="pivot"></g><g class="pivot"></g><g class="pivot"></g><g class="pivot"></g><g class="pivot"></g><g class="pivot"></g><g class="pivot"></g><g class="pivot"></g><g class="pivot"></g><g class="pivot"></g><g class="pivot"></g><g class="pivot"></g></g><g class="tick" transform="matrix(1, 0, 0, 1, 347.338, 0)" data-key="Innsbruck"><line y2="6" stroke="rgb(0, 0, 0)"></line><g class="pivot" transform="matrix(1, 0, 0, 1, 0, 9)"><text display="block" dominant-baseline="hanging" text-anchor="end" white-space="nowrap" transform="matrix(0.707107, -0.707107, 0.707107, 0.707107, 0, 0)">Innsbruck</text></g><g class="pivot"></g><g class="pivot"></g><g class="pivot"></g><g class="pivot"></g><g class="pivot"></g><g class="pivot"></g><g class="pivot"></g><g class="pivot"></g><g class="pivot"></g><g class="pivot"></g><g class="pivot"></g><g class="pivot"></g><g class="pivot"></g></g><g class="tick" transform="matrix(1, 0, 0, 1, 423.676, 0)" data-key="Klagenfurt"><line y2="6" stroke="rgb(0, 0, 0)"></line><g class="pivot" transform="matrix(1, 0, 0, 1, 0, 9)"><text display="block" dominant-baseline="hanging" text-anchor="end" white-space="nowrap" transform="matrix(0.707107, -0.707107, 0.707107, 0.707107, 0, 0)">Klagenfurt</text></g><g class="pivot"></g><g class="pivot"></g><g class="pivot"></g><g class="pivot"></g><g class="pivot"></g><g class="pivot"></g><g class="pivot"></g><g class="pivot"></g><g class="pivot"></g><g class="pivot"></g><g class="pivot"></g><g class="pivot"></g><g class="pivot"></g></g><g class="tick" transform="matrix(1, 0, 0, 1, 500.014, 0)" data-key="Villach"><line y2="6" stroke="rgb(0, 0, 0)"></line><g class="pivot" transform="matrix(1, 0, 0, 1, 0, 9)"><text display="block" dominant-baseline="hanging" text-anchor="end" white-space="nowrap" transform="matrix(0.707107, -0.707107, 0.707107, 0.707107, 0, 0)">Villach</text></g><g class="pivot"></g><g class="pivot"></g><g class="pivot"></g><g class="pivot"></g><g class="pivot"></g><g class="pivot"></g><g class="pivot"></g><g class="pivot"></g><g class="pivot"></g><g class="pivot"></g><g class="pivot"></g><g class="pivot"></g><g class="pivot"></g></g></g></g><g class="title" transform="matrix(1, 0, 0, 1, 506, 58)"><text display="block" dominant-baseline="hanging" font-size="16.8px" letter-spacing="1.68px" white-space="nowrap">City</text></g><g class="subtitle" transform="matrix(1, 0, 0, 1, 542, 77)"><text display="block" dominant-baseline="hanging" white-space="nowrap"></text></g></g></svg>